<svg width="225" height="225" viewBox="0 0 225 225" fill="none" xmlns="http://www.w3.org/2000/svg">
<rect width="225" height="225" fill="white"/>
<path d="M146.357 146.202H154.571C156.75 146.202 158.839 145.337 160.38 143.796C161.92 142.256 162.786 140.167 162.786 137.988V125.667C162.786 123.488 161.92 121.399 160.38 119.858C158.839 118.318 156.75 117.452 154.571 117.452H146.357C145.268 117.452 144.223 117.885 143.453 118.655C142.683 119.426 142.25 120.47 142.25 121.56V142.095C142.25 143.185 142.683 144.229 143.453 144.999C144.223 145.77 145.268 146.202 146.357 146.202ZM146.357 146.202V152.363C146.357 156.72 144.626 160.899 141.545 163.98C138.464 167.061 134.286 168.792 129.929 168.792M64.2143 117.452H72.4286C73.5179 117.452 74.5625 117.885 75.3328 118.655C76.103 119.426 76.5357 120.47 76.5357 121.56V142.095C76.5357 143.185 76.103 144.229 75.3328 144.999C74.5625 145.77 73.5179 146.202 72.4286 146.202H64.2143C62.0357 146.202 59.9464 145.337 58.4059 143.796C56.8654 142.256 56 140.167 56 137.988V125.667C56 123.488 56.8654 121.399 58.4059 119.858C59.9464 118.318 62.0357 117.452 64.2143 117.452Z" stroke="#435568" stroke-width="8.21429" stroke-linecap="round" stroke-linejoin="round"/>
<path d="M72.4285 117.452V109.238C72.4285 99.4346 76.3229 90.0325 83.2551 83.1004C90.1872 76.1682 99.5892 72.2738 109.393 72.2738C119.196 72.2738 128.598 76.1682 135.53 83.1004C142.463 90.0325 146.357 99.4346 146.357 109.238V117.452M97.0713 101.024V113.345M121.714 101.024V113.345M97.0713 129.774C97.0713 140.699 121.714 140.699 121.714 129.774M119.661 158.524C122.384 158.524 124.995 159.606 126.921 161.531C128.847 163.457 129.928 166.068 129.928 168.792C129.928 171.515 128.847 174.127 126.921 176.052C124.995 177.978 122.384 179.06 119.661 179.06H107.339C104.616 179.06 102.004 177.978 100.079 176.052C98.1531 174.127 97.0713 171.515 97.0713 168.792C97.0713 166.068 98.1531 163.457 100.079 161.531C102.004 159.606 104.616 158.524 107.339 158.524H119.661Z" stroke="#435568" stroke-width="8.21429" stroke-linecap="round" stroke-linejoin="round"/>
<g clip-path="url(#clip0_4_86)">
<mask id="mask0_4_86" style="mask-type:luminance" maskUnits="userSpaceOnUse" x="160" y="28" width="58" height="60">
<path d="M215.059 58C215.059 72.9121 203.406 85 189.03 85H163V58C163 43.0879 174.653 31 189.03 31C203.406 31 215.059 43.0879 215.059 58Z" fill="#555555" stroke="white" stroke-width="5.83333" stroke-linecap="round" stroke-linejoin="round"/>
<path d="M176.015 49.8999H199.442M176.015 60.6999H199.442M176.015 71.4999H189.03" stroke="white" stroke-width="5.83333" stroke-linecap="round" stroke-linejoin="round"/>
</mask>
<g mask="url(#mask0_4_86)">
<path d="M159.579 25.6H222.05V90.4H159.579V25.6Z" fill="#46C574"/>
</g>
</g>
<defs>
<clipPath id="clip0_4_86">
<rect width="70" height="70" fill="white" transform="translate(155 21)"/>
</clipPath>
</defs>
</svg>
