<svg width="721" height="224" viewBox="0 0 721 224" fill="none" xmlns="http://www.w3.org/2000/svg">
<path d="M30.2949 97.8518C23.7642 100.933 6.47199 114.761 3.14032 118.859C-0.324025 122.957 -1.34122 116.559 2.24106 105.916C5.05677 97.3359 12.2361 85.675 24.2802 75.68C31.3268 69.9159 46.8353 61.5867 56.3144 56.7219C58.2308 55.69 83.0856 45.1938 105.257 39.9456C107.174 39.4297 102.958 43.1446 102.309 45.1938C98.9774 54.9234 32.4914 96.702 32.4914 96.702L30.2949 97.8518Z" fill="black"/>
<path d="M123.95 215.33C125.1 222.244 124.083 222.76 116.904 223.659C109.724 224.558 104.476 221.861 102.56 220.077C100.643 218.278 100.26 214.313 102.176 210.731C103.326 208.431 104.476 207.649 105.125 204.834C105.759 202.151 106.275 201.502 106.791 200.485C107.307 199.586 107.425 198.686 107.557 192.406C107.69 186.126 107.557 174.348 108.191 169.35C108.825 164.22 130.997 171.65 130.997 171.65C130.997 171.65 125.749 184.711 124.333 187.925C122.918 191.124 123.051 197.271 123.051 198.554C123.051 199.836 122.535 202.401 122.152 202.519C121.768 202.652 123.434 205.984 122.668 207.9C122.166 209.684 123.832 214.298 123.95 215.33Z" fill="black"/>
<path d="M132.412 19.4397C131.646 14.5748 132.412 4.96311 133.444 3.42996C136.643 -0.933646 153.552 -1.43487 157.149 3.68057C158.682 5.9803 158.564 11.3611 158.299 14.8254C158.048 18.2898 157.149 25.7197 157.016 28.1521C156.884 29.9506 138.309 32.7663 134.211 27.9015C133.046 26.619 132.412 19.4397 132.412 19.4397Z" fill="black"/>
<path d="M170.078 202.903C177.891 208.534 183.92 209.566 187.886 211.615C191.851 213.664 190.834 217.63 184.171 218.794C178.79 219.826 170.328 217.762 164.697 217.762C159.065 217.762 146.505 218.396 143.174 216.097C139.326 213.414 140.992 208.416 140.992 208.416C142.024 205.6 144.574 199.32 143.808 194.19C143.041 189.06 142.009 186.244 140.093 181.512C138.176 176.765 136.761 165.119 138.559 164.47C140.358 163.837 139.842 164.47 142.142 164.986C144.441 165.502 147.007 166.269 152.004 166.269C157.002 166.269 162.515 165.502 164.431 165.119C166.348 164.736 167.896 164.353 167.247 168.318C166.613 172.284 164.682 179.714 164.564 185.492C164.431 191.256 164.431 197.92 164.815 199.07C165.213 200.205 168.029 201.487 170.078 202.903Z" fill="black"/>
<path d="M142.657 32.2456C128.564 44.4224 101.277 47.754 60.7953 63.3804C50.417 67.346 22.7464 79.2722 16.0831 91.6996C38.5055 78.7562 46.8347 96.5645 48.6184 114.889C50.2843 132.063 58.8641 141.026 80.9032 140.51C103.576 139.994 110.505 153.188 116.77 168.697C128.947 109.375 148.421 97.847 160.966 87.7341C187.635 66.0782 154.834 27.8967 142.657 32.2456Z" fill="#88CE02"/>
<path d="M142.657 32.2456C108.839 44.0391 75.3897 46.9727 36.0583 71.1937C26.712 76.9577 6.97257 90.0191 3.12494 115.007C17.4688 99.1148 50.6528 79.1396 91.2668 66.4468C111.773 60.0341 126.751 55.8179 144.942 48.7712C143.689 40.5747 143.689 37.3758 142.657 32.2456Z" fill="#88CE02"/>
<path d="M185.836 102.455C185.836 102.455 183.404 110.784 178.539 113.467C178.539 113.467 174.957 114.75 167.777 110.784C165.728 109.634 164.195 105.654 164.313 104.371C164.446 101.29 166.362 99.8899 166.362 99.8899C166.362 99.8899 168.411 96.4255 170.844 96.5582C173.276 96.6909 177.374 97.0742 178.657 95.9243C179.807 94.6418 186.087 98.2241 185.836 102.455Z" fill="black"/>
<path d="M133.561 21.8758C133.561 21.8758 133.045 28.4064 132.146 32.5047C132.013 33.2712 128.181 33.6545 125.35 34.8044C130.731 50.1802 163.148 50.0475 167.379 42.4849C165.33 41.0697 161.232 38.9026 159.315 38.1361C157.399 37.3695 157.517 37.5022 157.399 33.9051C157.266 30.3229 157.016 23.6595 156.765 21.861C156.5 20.0772 136.642 20.0772 133.561 21.8758Z" fill="black"/>
<path d="M134.844 21.8758C134.844 21.8758 134.844 25.5907 134.46 29.173C134.328 30.8388 134.21 31.856 133.945 33.1386C133.812 33.9052 138.293 36.9862 139.576 43.7675C145.723 57.4775 159.949 50.6814 165.846 44.1508C163.797 42.7356 160.465 40.8191 156.618 39.286C154.701 38.5194 155.586 36.8535 155.468 33.2713C155.335 29.689 154.834 24.4261 154.568 22.5097C154.318 20.5932 137.925 20.0772 134.844 21.8758Z" fill="#EFEFEF"/>
<path d="M133.561 21.8757C133.561 21.8757 133.429 24.1755 133.045 26.8732C134.711 28.5391 136.893 30.8388 138.559 32.254C139.709 33.286 142.524 33.1533 145.089 33.1533C147.389 33.1533 149.438 33.4039 150.338 32.9027C152.387 31.8708 155.335 29.3204 157.001 27.3892C156.868 25.0895 156.75 22.9077 156.618 21.8757C156.5 20.0772 136.642 20.0772 133.561 21.8757Z" fill="black"/>
<path d="M145.222 31.6054C143.689 31.6054 141.891 31.4727 140.475 31.2221C139.841 31.0894 139.193 30.7062 138.677 30.4555C137.778 29.8216 136.878 29.0403 135.861 28.2737C133.812 26.7406 133.679 25.8413 133.679 25.458C134.579 17.3795 133.429 10.5982 133.429 10.5982C133.429 10.5982 132.529 7.13385 137.394 6.2346C142.259 5.33534 145.207 5.20267 145.207 5.20267C145.207 5.20267 148.289 5.20266 153.021 6.2346C157.885 7.13385 156.986 10.5982 156.986 10.5982C156.986 10.5982 155.836 17.3942 156.736 25.458C156.736 25.8413 156.603 26.7406 154.554 28.2737C152.755 29.5563 151.355 30.9568 149.94 31.2221C148.554 31.4875 146.755 31.6054 145.222 31.6054Z" fill="black"/>
<path d="M145.222 1.88574C136.76 1.88574 135.094 4.18548 132.662 6.75057C132.146 7.38448 132.529 11.2321 133.429 19.4286H134.578C134.578 19.4286 133.812 17.1289 133.945 14.4311C134.077 11.7481 134.578 11.866 134.195 11.2321C133.679 10.4655 132.662 9.18299 134.962 7.90044C137.261 6.61789 140.859 8.93237 145.207 9.05031C149.556 8.91763 153.271 6.61789 155.586 7.90044C157.885 9.18299 156.868 10.4655 156.352 11.2321C155.836 11.9987 156.485 11.7481 156.603 14.4311C156.736 17.1141 155.969 19.4286 155.969 19.4286H157.119C157.885 11.2321 158.401 7.63508 158.018 7.00118C155.851 4.18548 153.669 2.01842 145.222 1.88574Z" fill="black"/>
<path d="M185.836 102.838C185.836 102.838 183.404 110.652 178.657 113.349C177.625 112.833 177.757 112.067 176.858 110.917C176.608 110.534 175.708 110.283 175.325 109.885C174.942 109.502 175.074 108.853 174.426 108.352C173.91 107.836 173.526 108.219 173.011 107.836C172.495 107.32 172.377 106.686 171.979 106.303C171.728 106.052 170.696 105.919 170.445 105.669C169.812 105.035 164.165 103.87 164.431 102.588C164.947 100.671 165.964 99.256 165.964 99.256C165.964 99.256 168.396 95.6737 170.829 95.7917C173.261 95.9243 175.576 96.4256 176.843 95.2757C178.273 94.0079 186.219 98.74 185.836 102.838Z" fill="black"/>
<path d="M169.178 46.2146C169.178 46.2146 177.242 44.2982 182.755 49.5463C188.268 54.9271 187.885 61.5904 186.219 65.6887C187.635 67.3545 190.185 71.9687 188.268 77.4822C196.73 84.6615 193.015 95.6737 185.453 102.971C185.453 102.971 183.654 96.3076 176.49 95.9243C176.74 93.3592 169.826 91.3101 173.025 84.6468C168.161 83.4969 168.278 80.1652 167.512 76.067C166.878 71.9687 169.178 46.2146 169.178 46.2146Z" fill="black"/>
<path d="M166.229 49.7969C166.229 49.7969 175.576 45.05 181.089 50.4308C186.603 55.8116 185.055 61.7084 183.389 65.8066C184.804 67.4725 188.136 72.2194 186.072 77.8508C185.689 79.1333 182.873 79.1333 180.824 82.465C185.954 79.5166 189.153 80.2832 190.303 83.9981C192.101 89.7622 188.121 96.6762 184.671 100.524C184.671 100.391 184.539 100.273 184.539 100.141C184.023 102.057 183.389 105.772 179.541 109.87C177.625 111.919 176.077 111.669 173.91 111.153C171.345 110.519 170.446 109.354 166.863 107.438C164.814 106.288 165.964 104.873 165.964 103.723C165.964 103.472 166.215 103.089 166.598 102.573C166.849 101.939 167.63 100.907 168.78 99.7572C168.78 99.7572 170.446 97.4575 172.878 97.5754C175.31 97.7081 177.875 97.1921 178.509 96.5435C178.509 92.062 173.379 91.9293 175.178 84.2487C175.31 83.8654 175.944 83.2168 177.993 82.9662C174.912 82.3323 173.512 82.1996 171.33 80.1505C169.797 78.7353 168.647 76.9515 168.249 74.637C167.512 70.6862 166.229 49.7969 166.229 49.7969Z" fill="#EFEFEF"/>
<path d="M139.193 41.7331C138.426 40.7012 134.446 35.5857 126.898 33.5366C124.716 32.9027 123.316 34.6865 121.134 35.969C120.5 35.5857 117.67 34.3032 116.136 35.2024C114.603 36.1017 113.571 37.0009 112.038 37.6348C111.272 37.2516 109.222 37.2516 107.557 37.8855C105.891 38.4014 103.326 39.5513 100.893 42.883C99.3601 48.3964 128.048 44.2982 128.048 44.2982L139.193 41.7331Z" fill="black"/>
<path d="M139.458 41.7331C135.36 40.3179 135.994 35.5857 126.898 34.8192C125.099 34.6865 123.949 36.1017 122.667 37.001C123.301 37.6349 123.949 38.6668 124.333 39.684C123.183 38.4014 121.134 36.7356 119.085 36.3523C117.168 35.969 115.886 37.3842 113.837 38.4014C114.22 38.7847 114.603 39.4334 115.119 40.2C113.321 39.0501 112.038 38.6668 109.606 39.566C107.94 40.082 104.741 41.4825 102.308 44.9469C100.775 50.4603 128.195 44.3129 128.195 44.3129L139.458 41.7331Z" fill="#88CE02"/>
<path d="M163.546 43.7822C163.546 43.7822 163.546 42.367 163.414 41.0992C163.414 40.8486 162.382 40.1999 162.382 39.9493L162.131 39.6987C162.131 39.6987 164.18 38.5488 165.713 39.1827C167.379 39.6987 168.278 41.8657 168.278 41.8657C171.227 40.8338 171.477 41.9984 172.893 43.5316C175.974 42.8977 176.357 44.0475 178.273 46.8632C178.273 46.8632 175.974 46.48 171.477 47.2465C167.129 47.8805 163.546 43.6495 163.546 43.7822Z" fill="black"/>
<path d="M163.03 43.1336C163.03 43.1336 163.797 42.4997 163.546 42.367C164.962 41.6004 166.878 40.7011 167.777 43.1336C170.726 42.1016 171.109 43.5168 172.524 45.05C176.106 43.3842 176.372 45.4333 176.622 46.3325C175.473 46.3325 173.807 46.4652 171.492 46.7158C167.129 47.3645 162.898 43.0156 163.03 43.1336Z" fill="#88CE02"/>
<path d="M119.468 39.9346C119.468 39.9346 126.765 42.4997 132.927 42.1164C139.075 41.6004 149.586 41.0845 155.217 44.4161C155.217 44.4161 160.981 42.367 166.362 43.7822C171.743 45.1974 181.605 54.4111 178.657 64.1555C178.406 64.7894 176.74 65.8214 174.809 66.4553C174.809 66.4553 175.841 70.8041 174.042 74.4012C172.244 77.8655 168.278 84.5288 168.146 93.7425C168.013 95.2757 167.762 98.4894 167.512 100.023C157.517 99.6393 142.141 95.9243 127.031 96.175C127.163 94.5091 127.281 93.4919 127.414 91.8261H127.797C127.031 87.5951 126.765 85.4134 125.999 82.2144C121.134 79.1333 116.004 75.551 111.655 68.755C107.424 61.9737 119.468 39.9346 119.468 39.9346Z" fill="black"/>
<path d="M168.927 109.118C168.927 109.118 176.873 137.555 167.512 149.482C167.512 149.482 168.927 154.995 165.713 160.877C165.197 163.442 164.563 165.742 164.18 168.307C162.514 178.936 159.699 183.417 158.932 200.459L151.252 200.326C151.252 200.326 150.352 188.032 147.669 181.486C146.136 177.771 140.107 172.774 140.372 167.776C140.623 163.929 141.404 160.73 147.935 155.6C148.451 148.17 141.021 141.123 142.171 113.452L168.927 109.118Z" fill="black"/>
<path d="M166.613 107.969C168.662 121.03 173.409 140.386 164.814 149.865C165.197 151.663 165.448 154.229 164.947 157.162C164.696 158.695 164.18 160.361 163.531 162.16C162.249 165.241 161.733 169.722 161.35 172.405C159.684 183.034 159.684 183.55 158.917 200.592L151.237 200.459C151.237 200.459 150.337 188.164 147.654 181.634C146.121 177.919 142.908 174.72 142.657 169.722C142.406 165.875 145.089 158.194 151.502 158.445C151.119 142.936 143.94 146.017 142.023 113.733L166.613 107.969Z" fill="#EFEFEF"/>
<path d="M119.468 39.9346C119.468 39.9346 122.284 40.8338 125.365 41.0845C128.446 41.3351 131.778 41.0845 134.711 40.9518C140.859 40.4358 149.571 39.8019 155.335 43.1336C155.335 43.1336 158.534 42.1017 161.998 42.367C163.532 42.4997 165.079 43.7822 166.863 44.2834C172.495 45.6987 177.875 55.045 175.443 63.5069C175.192 64.1408 173.394 63.5069 171.345 64.1408C171.728 65.9393 171.979 70.0375 169.93 74.3864C167.748 78.75 164.932 84.3814 165.448 95.143C151.989 94.5091 145.974 93.6098 132.647 92.9612C131.497 88.2143 130.731 83.4822 130.598 81.0497C132.397 80.1505 133.414 79.3839 134.829 77.8508C130.981 78.4847 129.448 78.234 127.149 76.9515C124.849 75.669 120.736 71.5707 118.687 68.8877C118.436 68.6371 117.021 72.8532 113.822 72.9859C112.672 71.3201 117.537 66.5732 116.638 64.7894C113.453 58.2588 119.468 39.9346 119.468 39.9346Z" fill="#EFEFEF"/>
<path d="M167.645 97.3248C167.645 97.3248 167.895 101.939 167.895 103.089C167.895 104.371 168.927 108.219 169.045 110.003C167.63 112.435 161.482 117.949 150.338 119.998C139.325 122.298 124.716 105.005 124.716 105.005C125.099 103.34 126.382 98.4747 127.281 95.9096C127.414 95.659 127.665 95.0104 127.665 94.7597C128.829 93.1086 167.645 97.3248 167.645 97.3248Z" fill="black"/>
<path d="M164.829 97.7229C164.829 100.922 165.345 103.236 165.728 105.285C166.362 109 167.394 111.433 167.394 113.865C167.394 121.295 157.664 120.013 149.453 120.278C138.441 122.578 129.08 105.285 129.08 105.285C129.846 102.337 130.362 99.0054 131.512 96.1897C131.645 94.6565 131.895 92.7254 132.028 91.8409C147.655 91.8409 158.682 92.7401 165.08 93.374C165.33 94.7745 165.079 97.2069 164.829 97.7229Z" fill="#EFEFEF"/>
<path d="M152.519 114.249C152.519 114.249 145.723 99.1381 125.365 103.62C120.5 117.33 113.969 133.089 118.185 150.13C113.955 155.894 109.09 159.093 109.09 169.737C109.09 180.366 109.606 182.164 109.606 182.164L124.598 182.931C124.598 182.931 129.463 176.651 131.394 169.87C131.91 167.953 132.426 164.489 132.028 160.523C132.544 159.757 134.711 157.958 134.976 154.509C134.976 154.509 142.274 150.661 146.505 141.315C150.47 132.823 149.453 125.511 152.519 114.249Z" fill="black"/>
<path d="M152.519 114.249C152.136 112.833 147.006 99.0054 128.048 103.104C116.903 132.823 121.001 145.133 122.667 150.514C115.104 160.125 111.655 162.174 113.188 181.649H123.183C127.797 174.351 128.814 171.653 129.08 162.042C129.08 161.658 127.665 162.808 126.647 164.091C127.414 160.125 129.596 159.344 131.262 156.912C132.028 155.88 132.677 154.347 132.677 152.297C141.64 146.283 144.972 138.72 146.903 130.907C148.421 125.511 150.22 116.681 152.519 114.249Z" fill="#EFEFEF"/>
<path d="M120.883 93.6246C120.883 93.6246 124.348 93.7572 127.414 94.7744C130.362 95.8064 130.362 96.4403 131.512 97.7228C132.662 99.0054 135.478 100.922 134.976 102.853C134.726 103.885 134.077 104.136 133.178 105.035C132.795 105.418 129.979 108.499 129.33 108.882C128.947 109.133 128.431 109.516 128.048 109.782C127.664 110.032 126.515 110.814 126.131 111.064C124.849 111.698 123.95 112.096 122.549 111.963C122.549 111.963 119.35 111.831 117.301 109.664C117.301 109.664 117.05 108.632 117.552 108.131C117.552 108.131 114.854 105.831 114.087 104.283C113.321 102.75 113.321 100.568 113.837 99.4182C114.087 98.2241 119.085 95.0251 120.883 93.6246Z" fill="black"/>
<path d="M124.082 218.267L123.699 221.466C123.699 221.466 122.549 222.882 113.969 222.749C105.257 222.616 102.957 219.933 102.176 218.518L101.66 215.186C101.66 215.186 103.326 212.754 103.709 212.754C106.525 213.004 116.136 216.852 122.8 217.884C123.448 217.884 123.566 218.149 124.082 218.267Z" fill="black"/>
<path d="M142.657 211.737C142.657 213.152 142.524 213.152 142.524 214.552C144.058 215.702 147.905 216.351 155.202 216.218C165.831 215.968 175.708 219.417 187.738 217.368L187.87 215.068L186.721 214.936L144.058 211.471L142.657 211.737Z" fill="black"/>
<path d="M152.018 216.218C153.05 216.218 154.067 216.218 155.217 216.218C162.131 215.968 168.676 217.501 175.723 217.884C179.438 217.751 184.052 216.852 183.669 214.169L147.286 211.088C145.089 213.535 146.755 215.584 152.018 216.218Z" fill="black"/>
<path d="M110.24 162.292C111.389 163.059 119.203 167.673 131.895 167.039C131.645 169.472 131.763 174.219 126.131 182.548C123.316 186.646 120.883 193.825 120.367 202.921C120.5 204.97 121.65 206.769 120.117 209.452C120.633 211.118 122.682 214.449 123.699 216.498C124.731 218.547 125.232 220.862 118.451 220.98C111.537 221.113 100.392 220.346 101.925 214.965C102.692 212.149 104.874 209.201 105.124 208.051C105.375 206.901 105.375 203.437 107.557 201.137C109.473 194.725 108.839 188.577 108.456 182.813C107.807 176.769 107.689 167.157 110.24 162.292Z" fill="black"/>
<path d="M122.166 57.8755C131.262 45.6987 123.581 35.969 108.972 38.9174C103.075 40.0673 97.1783 44.1655 96.795 51.5954C94.8786 51.846 90.515 52.1114 88.3332 60.0573C86.6673 66.2047 85.7681 67.3545 82.8197 70.4356C80.9032 72.6174 82.9524 77.0989 84.3528 80.2979C89.0997 91.3101 103.694 92.342 113.557 100.671C116.888 99.7719 120.353 96.057 121.37 93.6246C113.041 83.7622 114.839 79.9146 111.507 74.7844C115.119 73.5019 123.316 68.5044 122.166 57.8755Z" fill="black"/>
<path d="M120.367 57.1089C120.883 56.3423 121.783 54.6765 122.166 54.0278C122.298 53.8952 123.699 56.3276 123.832 56.2096C127.296 50.5782 128.181 42.367 124.215 41.6004C123.316 41.4677 121.65 41.0845 120.249 40.5685C117.684 39.6692 115.385 39.6692 111.286 40.4358C105.655 41.4677 100.009 45.566 100.009 51.448C100.009 51.8313 103.974 52.9812 105.139 57.7281C103.222 55.0303 99.8908 52.0966 95.9105 54.647C91.6796 57.33 93.8614 63.4921 88.23 69.8901C86.3135 72.0719 86.5641 74.637 88.6133 79.7525C91.9449 87.831 107.704 92.1799 116.284 99.8604C118.333 98.9612 119.748 96.912 120.765 95.3789C115.001 89.3642 112.687 83.718 111.036 79.6198C108.987 74.8729 106.672 72.1899 102.191 68.6076C104.49 69.5068 106.289 70.4061 107.321 71.1727C108.471 71.9392 110.136 72.0719 111.684 71.5559C117.168 69.6542 120.117 61.9737 120.367 57.1089Z" fill="#EFEFEF"/>
<path d="M176.092 59.158C175.708 64.0229 172.126 61.5904 170.195 60.6912C166.347 59.0253 162.514 57.8755 158.018 57.8755C153.522 57.8755 147.773 58.2588 142.775 59.5413C135.861 61.4578 133.812 61.3398 130.731 59.7919C127.65 58.1261 122.269 54.0278 122.269 54.0278C122.269 54.0278 122.136 55.3104 123.419 56.9762C125.085 59.0253 128.8 61.5904 133.797 63.2563C136.23 64.0229 138.161 63.5069 140.328 63.0057C151.723 60.19 163.767 59.674 173.895 65.8214C174.411 66.072 176.195 65.3054 176.976 64.1555C178.023 62.4897 176.092 59.158 176.092 59.158Z" fill="black"/>
<path d="M117.802 107.969C118.834 108.602 120.102 109 121.517 110.15C121.517 110.15 120.367 110.15 119.851 109.634C119.217 109.251 117.935 108.101 117.802 107.969Z" fill="#001423"/>
<path d="M154.834 6.36728C154.451 5.21741 151.635 3.16829 145.104 3.16829C138.058 3.16829 136.008 5.35008 135.876 6.49995C135.876 6.88324 135.36 10.9815 135.242 12.6473C135.242 12.6473 135.242 14.6964 135.374 17.7775C135.507 19.8266 136.008 20.9765 136.274 23.6743C136.524 26.49 137.306 28.2885 138.706 30.5882C139.34 30.9715 139.856 31.3548 140.505 31.4875C143.07 32.0034 147.551 32.1214 149.984 31.4875C151.399 31.1042 153.183 28.6718 153.566 26.49C154.082 23.8069 154.598 21.8758 154.716 20.2099C154.966 18.5441 155.099 14.8291 155.232 13.7972C155.6 10.9815 154.952 6.63263 154.834 6.36728Z" fill="#EFEFEF"/>
<path d="M141.374 164.725C141.374 164.725 148.17 167.673 164.947 165.108C164.947 165.108 160.2 188.931 162.382 200.857C162.382 200.857 164.563 203.938 180.706 209.82C180.706 209.82 187.885 211.619 187.62 215.201C187.62 215.201 187.87 215.968 179.158 215.717C170.445 215.466 162.249 213.919 156.485 213.919C150.721 213.919 144.573 214.169 143.542 212.503C142.392 210.97 143.792 206.99 145.458 204.69C147.256 202.258 146.741 200.459 146.608 196.11C146.239 184.715 137.527 172.921 141.374 164.725Z" fill="black"/>
<path d="M139.974 166.907C139.075 168.189 140.107 173.054 141.389 177.801C142.672 182.548 145.487 185.363 146.136 193.177C146.77 200.857 146.903 201.889 144.721 206.371C142.539 210.852 141.905 214.95 149.468 215.083C157.03 215.216 161.129 214.95 168.809 216.115C176.49 217.265 179.187 217.648 183.418 217.014C187.649 216.38 188.549 214.965 186.75 213.683C184.952 212.4 177.522 211 174.323 208.435C171.242 206.135 162.529 202.287 162.411 201.255C162.028 197.791 161.895 185.246 162.544 181.147C163.178 177.049 164.077 171.152 164.342 169.619C164.593 168.086 165.876 166.538 163.708 167.054C161.527 167.57 153.33 168.72 147.183 168.337C140.991 167.924 140.357 166.509 139.974 166.907Z" fill="#88CE02"/>
<path opacity="0.3" d="M144.323 206.489C146.505 207.52 149.704 208.287 152.136 208.287C152.136 208.287 151.237 212.518 152.652 215.083C154.067 217.648 142.406 216.115 142.406 216.115L141.891 207.019L144.323 206.489Z" fill="black"/>
<path opacity="0.3" d="M178.273 217.501C180.323 216.867 181.738 214.552 180.072 212.371C178.273 210.189 176.74 209.806 179.04 209.688C181.34 209.555 189.802 214.685 189.802 214.685L185.438 218.651L178.273 217.501Z" fill="black"/>
<path opacity="0.3" d="M139.591 171.889C142.539 172.921 147.021 173.172 150.868 173.039C154.716 172.907 160.48 172.405 164.195 171.123C167.91 169.84 166.377 172.538 166.377 172.538L164.328 174.454C164.328 174.454 159.463 176.371 151.517 176.253C142.171 176.12 139.34 175.103 139.34 175.103L139.591 171.889Z" fill="black"/>
<path opacity="0.3" d="M139.841 178.302C142.79 179.334 147.271 179.585 151.119 179.452C154.967 179.319 160.082 179.319 163.797 177.919C165.33 177.403 164.431 179.585 164.431 179.585L163.797 180.735C163.797 180.735 158.799 182.533 150.986 182.4C141.64 182.268 139.974 181.501 139.974 181.501L139.841 178.302Z" fill="black"/>
<path d="M131.38 88.4944C131.38 89.3937 141.375 94.3912 146.888 95.4084C152.401 96.4403 163.93 95.4084 165.728 95.0251L165.478 96.8236C165.478 96.8236 151.768 98.8727 141.271 96.057C130.76 93.2413 131.925 92.5927 131.925 92.5927L131.38 88.4944Z" fill="black"/>
<path d="M109.985 197.78C111.518 198.546 117.032 199.962 120.614 199.195C121.13 199.062 120.614 190.35 122.029 186.384C124.078 180.871 127.41 176.389 128.943 166.66C123.562 166.144 117.415 164.743 114.216 163.711C110.118 176.257 111.533 187.018 109.985 197.78Z" fill="#EFEFEF"/>
<path d="M118.58 205.844C119.479 206.094 120.113 207.126 120.378 206.478C120.894 205.328 119.479 203.146 119.346 201.613C119.346 201.48 119.346 201.613 119.346 201.48C118.196 200.448 110.383 200.33 110.884 200.846C109.985 202.512 108.585 202.261 108.069 205.593C107.818 207.259 109.867 205.844 111.784 205.726C108.319 208.025 104.354 210.974 103.72 213.539C102.953 217.121 104.236 218.153 108.083 220.07C111.415 220.836 115.381 220.969 118.462 220.836C121.926 220.202 122.56 218.536 121.543 216.222C119.98 212.772 118.963 208.276 118.58 205.844Z" fill="#EFEFEF"/>
<path d="M119.984 39.4186C124.215 41.851 130.112 41.2171 132.279 41.0844C132.795 41.0844 137.91 40.1852 138.175 40.3179C138.691 40.4506 138.691 40.8338 138.691 40.8338C138.691 40.8338 136.775 41.8658 132.411 42.1164C128.313 42.367 123.448 42.1164 120.751 40.8338C117.552 39.4186 119.984 39.4186 119.984 39.4186Z" fill="black"/>
<path d="M163.546 41.851C164.313 42.367 169.31 44.2835 171.492 46.5979C173.409 48.6471 172.391 48.5144 172.008 48.0131C171.492 47.3792 167.527 44.6815 165.993 44.0476C164.46 43.4137 162.529 42.2491 162.529 41.9985C162.529 41.7479 163.546 41.851 163.546 41.851Z" fill="black"/>
<path d="M119.335 95.0251C123.05 94.7745 126.898 95.659 129.33 98.2241C130.613 99.5067 132.662 100.907 132.411 102.19C132.411 102.573 131.645 103.605 130.996 104.371C130.613 104.887 129.463 106.037 129.08 106.421C128.564 106.804 126.78 108.219 126.397 108.47C126.013 108.72 125.497 109.369 125.114 109.502C123.832 110.136 122.431 109.634 121.149 108.986C119.866 108.352 121.399 108.219 119.999 107.187C116.534 104.755 114.618 103.089 116.033 98.342C116.136 97.4575 117.552 96.4403 119.335 95.0251Z" fill="#EFEFEF"/>
<path opacity="0.4" d="M86.6679 65.685C75.1397 70.2992 45.8034 84.9084 37.4742 89.39C44.3881 93.7388 47.6019 104.25 48.6191 114.879C48.7517 115.911 48.8697 116.795 49.0023 117.827C49.135 118.726 49.253 119.36 49.3856 119.744C49.3856 119.876 49.3856 120.127 49.5183 120.26C57.0809 99.6356 84.1028 77.847 85.1348 76.1812C85.6507 75.4146 84.5008 72.083 86.2846 68.884C88.5991 64.7857 93.0806 63.002 86.6679 65.685Z" fill="black"/>
<path opacity="0.4" d="M114.088 162.421C119.985 150.628 120.103 139.365 119.985 126.171C119.985 120.658 123.95 112.844 121.901 115.026C114.221 123.606 94.8644 139.748 80.9038 140.648C100.511 139.999 108.191 149.861 114.088 162.421Z" fill="black"/>
<path d="M26.1967 100.284C33.4939 95.0361 71.2921 74.9134 80.3879 72.0977C89.4836 69.1494 86.6679 65.685 86.6679 65.685C86.6679 65.685 49.769 81.5768 27.7298 95.2867" fill="black"/>
<path opacity="0.4" d="M133.812 63.2526C130.864 62.1027 128.564 65.5523 129.331 68.884C130.098 72.2157 137.011 75.9306 136.628 88.1074C136.378 98.1025 134.196 102.201 134.196 102.201L129.331 96.0533C129.331 96.0533 128.564 82.2107 126.899 80.1616C125.233 78.1124 119.985 74.3975 117.935 72.481C115.886 70.5646 120.235 67.9995 119.985 64.4025C119.734 60.9381 122.166 54.0242 122.166 54.0242L133.812 63.2526Z" fill="black"/>
<path opacity="0.4" d="M151.621 117.827C151.37 127.439 153.537 141.65 154.436 148.446C155.336 155.242 156.486 155.743 154.436 158.824C152.387 161.773 149.69 166.638 149.69 166.638L140.844 165.871C140.844 165.871 147.891 156.908 148.274 155.242C148.658 153.576 144.692 140.898 144.692 140.898L151.621 117.827Z" fill="black"/>
<path opacity="0.4" d="M134.594 28.1521C136.392 32.1177 138.559 33.9162 142.024 35.0661C144.073 35.8326 152.151 36.8646 155.35 33.2675C156.766 31.6017 155.866 27.1202 155.866 27.1202L148.569 33.0169L138.707 31.2184L137.557 28.27L134.594 28.1521Z" fill="black"/>
<path d="M135.36 36.9825C138.692 39.1643 147.021 41.2134 149.321 41.5967C151.621 42.1127 155.336 39.1643 157.134 38.3977C159.051 37.4985 162.382 36.9825 166.23 40.4469C166.613 40.8302 165.331 42.496 165.331 42.496C165.198 42.3633 164.431 42.3633 163.414 41.8621C162.382 41.3461 161.498 40.9628 159.95 41.0955C153.537 41.8621 152.52 44.0439 146.889 42.7613C141.257 41.4788 139.842 40.4616 134.328 40.7122" fill="#88CE02"/>
<path d="M135.36 36.9825C138.692 39.1643 147.021 41.2134 149.321 41.5967C151.621 42.1127 155.336 39.1643 157.134 38.3977C159.051 37.4985 162.382 36.9825 166.23 40.4469C166.613 40.8302 165.331 42.496 165.331 42.496C165.198 42.3633 164.431 42.3633 163.414 41.8621C162.382 41.3461 161.498 40.9628 159.95 41.0955C153.537 41.8621 152.52 44.0439 146.889 42.7613C141.257 41.4788 139.842 40.4616 134.328 40.7122" stroke="black" stroke-width="1.586" stroke-linejoin="round"/>
<path d="M134.196 37.3806C138.427 39.1791 146.623 41.0955 148.923 41.6115C151.223 42.1275 154.938 39.813 156.736 38.6631C159.935 36.614 164.033 38.2798 165.965 40.4616C167.247 41.8769 167.763 42.7614 167.763 43.1447C167.763 43.6606 166.23 43.1447 166.23 43.1447C165.331 42.7614 164.313 42.6287 163.547 42.1127C162.515 41.5968 161.498 40.8302 159.965 40.9629C153.552 41.7294 152.284 43.9112 146.771 42.6287C141.257 41.3462 139.857 40.1963 133.96 40.5796" fill="#88CE02"/>
<path d="M114.339 157.041C114.088 156.79 114.589 156.525 114.339 156.525C112.673 156.525 110.373 155.242 109.09 153.444C103.577 145.498 95.5131 140.25 80.9039 140.633C58.9974 141.149 50.285 132.171 48.6191 115.011C47.7199 105.665 45.1548 96.5693 39.9067 91.4391L36.8256 93.3555C42.7224 98.4857 44.6388 106.815 45.9214 118.21C47.9705 135.385 61.8131 143.316 77.9555 143.581C94.7318 143.832 100.761 147.296 107.041 155.758C109.09 158.441 111.405 159.34 113.189 159.724L114.339 157.041Z" fill="black"/>
<path opacity="0.4" d="M173.793 74.6628C174.176 76.5793 175.208 80.2942 177.257 82.0927C178.156 82.992 178.289 83.2426 177.508 83.2426C176.741 83.2426 171.095 82.992 171.095 82.992L169.562 80.309L173.793 74.6628Z" fill="black"/>
<path d="M233.985 155.293C233.985 154.404 234.368 154.025 235.268 154.025H249.507C250.024 154.025 250.274 154.404 250.274 155.293V155.919C250.274 156.808 250.024 157.186 249.507 157.186H237.585V166.423H248.223C248.74 166.423 248.991 166.802 248.991 167.69V168.317C248.991 169.205 248.74 169.584 248.223 169.584H237.585V179.462H249.507C250.024 179.462 250.274 179.84 250.274 180.729V181.356C250.274 182.244 250.024 182.623 249.507 182.623H235.15C234.25 182.623 233.866 182.244 233.866 181.356V155.278L233.985 155.293ZM255.66 181.632L255.793 167.326V166.86C255.749 163.888 255.276 162.387 255.276 162.271C255.276 161.513 256.944 161.382 257.46 161.382C258.493 161.382 258.611 163.028 258.877 164.034C260.544 162.14 262.979 160.989 265.295 160.989C269.53 160.989 271.965 163.393 271.965 167.574V181.632C271.965 182.142 271.448 182.521 270.297 182.521H270.165C269.014 182.521 268.497 182.142 268.497 181.632V167.953C268.497 165.549 266.963 164.034 264.262 164.034C262.462 164.034 260.411 165.17 259.128 166.816V181.632C259.128 182.142 258.611 182.521 257.46 182.521H257.327C256.177 182.507 255.66 182.128 255.66 181.632ZM281.054 180.744C279.52 180.117 278.487 179.097 278.487 177.451C278.487 175.426 280.154 174.538 281.571 174.028C279.136 172.891 277.852 170.604 277.852 167.953C277.852 164.15 280.67 160.989 286.056 160.989C287.089 160.989 287.974 161.12 288.742 161.236H295.795C296.311 161.236 296.562 161.615 296.562 162.504V163.014C296.562 163.903 296.311 164.281 295.795 164.281H292.976C293.876 165.418 294.393 166.685 294.393 168.084C294.393 171.886 291.575 175.047 286.189 175.047H285.805C284.772 175.047 282.338 175.295 282.338 176.694C282.338 179.855 296.193 176.694 296.193 184.663C296.193 188.203 292.608 191 285.938 191H285.481C280.331 190.942 276.701 189.747 276.701 185.682C276.436 183.279 278.354 181.632 281.054 180.744ZM286.189 187.955C289.907 187.955 292.342 186.557 292.342 184.663C292.342 182.259 287.989 182.011 284.138 181.37C282.471 181.997 280.036 183.395 280.036 185.173C280.021 187.445 282.854 187.955 286.189 187.955ZM290.675 167.953C290.675 164.849 288.697 163.932 286.204 163.903H286.056C283.489 163.903 281.438 164.922 281.438 167.953C281.438 171.114 283.489 172.003 286.056 172.003H286.337C288.771 171.93 290.675 170.997 290.675 167.953ZM312.985 169.22V167.326C312.985 165.549 311.834 163.903 308.499 163.903C304.781 163.903 302.479 165.549 302.08 165.549C301.564 165.549 300.664 164.034 300.664 163.524C300.664 162.504 304.249 160.989 308.351 160.989C313.486 160.989 316.437 163.393 316.437 167.326V176.315C316.437 179.607 316.954 181.254 316.954 181.385C316.954 182.142 315.287 182.273 314.77 182.273C313.737 182.273 313.619 180.627 313.354 179.491C311.819 181.137 309.502 182.536 306.433 182.536C302.464 182.536 299.38 180.642 299.38 176.461C299.395 169.73 306.832 169.22 312.985 169.22ZM306.566 179.607C309.517 179.607 311.317 178.209 312.985 176.825V172.017H312.144C308.042 172.032 303.113 172.294 303.113 176.198C303.113 178.456 304.264 179.607 306.566 179.607ZM325.807 180.744C324.272 180.117 323.24 179.097 323.24 177.451C323.24 175.426 324.907 174.538 326.323 174.028C323.889 172.891 322.605 170.604 322.605 167.953C322.605 164.15 325.423 160.989 330.809 160.989C331.842 160.989 332.727 161.12 333.495 161.236H340.548C341.064 161.236 341.315 161.615 341.315 162.504V163.014C341.315 163.903 341.064 164.281 340.548 164.281H337.729C338.629 165.418 339.146 166.685 339.146 168.084C339.146 171.886 336.328 175.047 330.942 175.047H330.558C329.525 175.047 327.091 175.295 327.091 176.694C327.091 179.855 340.946 176.694 340.946 184.663C340.946 188.203 337.36 191 330.691 191H330.234C325.084 190.942 321.454 189.747 321.454 185.682C321.189 183.279 322.989 181.632 325.807 180.744ZM330.809 187.955C334.527 187.955 336.962 186.557 336.962 184.663C336.962 182.259 332.595 182.011 328.758 181.37C327.091 181.997 324.656 183.395 324.656 185.173C324.656 187.445 327.474 187.955 330.809 187.955ZM335.295 167.953C335.295 164.849 333.318 163.932 330.824 163.903H330.676C328.109 163.903 326.058 164.922 326.058 167.953C326.058 171.114 328.109 172.003 330.676 172.003H330.957C333.391 171.93 335.295 170.997 335.295 167.953ZM345.683 155.293V152.889C345.683 152.379 346.199 152 347.35 152H347.866C349.017 152 349.534 152.379 349.534 152.889V155.293C349.534 155.802 349.017 156.181 347.866 156.181H347.35C346.199 156.181 345.683 155.802 345.683 155.293ZM345.815 162.009C345.815 161.499 346.332 161.12 347.483 161.12H347.615C348.766 161.12 349.283 161.499 349.283 162.009V181.501C349.283 182.011 348.766 182.39 347.615 182.39H347.483C346.332 182.39 345.815 182.011 345.815 181.501V162.009ZM356.454 167.326C356.454 164.034 355.937 162.387 355.937 162.256C355.937 161.499 357.605 161.368 358.121 161.368C359.154 161.368 359.272 163.014 359.538 164.019C361.205 162.125 363.64 160.974 365.956 160.974C370.191 160.974 372.626 163.378 372.626 167.559V181.618C372.626 182.128 372.109 182.507 370.958 182.507H370.826C369.675 182.507 369.158 182.128 369.158 181.618V167.938C369.158 165.534 367.624 164.019 364.923 164.019C363.123 164.019 361.072 165.155 359.789 166.802V181.618C359.789 182.128 359.272 182.507 358.121 182.507H357.988C356.838 182.507 356.321 182.128 356.321 181.618L356.454 167.326ZM381.715 180.744C380.181 180.117 379.148 179.097 379.148 177.451C379.148 175.426 380.815 174.538 382.232 174.028C379.797 172.891 378.513 170.604 378.513 167.953C378.513 164.15 381.331 160.989 386.717 160.989C387.75 160.989 388.635 161.12 389.403 161.236H396.456C396.972 161.236 397.223 161.615 397.223 162.504V163.014C397.223 163.903 396.972 164.281 396.456 164.281H393.505C394.405 165.418 394.921 166.685 394.921 168.084C394.921 171.886 392.103 175.047 386.717 175.047H386.334C385.301 175.047 382.866 175.295 382.866 176.694C382.866 179.855 396.721 176.694 396.721 184.663C396.721 188.203 393.136 191 386.466 191H386.009C380.859 190.942 377.229 189.747 377.229 185.682C377.097 183.279 379.03 181.632 381.715 180.744ZM386.85 187.955C390.568 187.955 393.003 186.557 393.003 184.663C393.003 182.259 388.65 182.011 384.799 181.37C383.132 181.997 380.697 183.395 380.697 185.173C380.697 187.445 383.382 187.955 386.85 187.955ZM391.336 167.953C391.336 164.849 389.358 163.932 386.865 163.903H386.717C384.15 163.903 382.099 164.922 382.099 167.953C382.099 171.114 384.15 172.003 386.717 172.003H386.997C389.432 171.93 391.336 170.997 391.336 167.953ZM412.229 164.15H410.178C409.662 164.15 409.411 163.771 409.411 162.883V162.373C409.411 161.484 409.662 161.105 410.178 161.105H412.229L412.746 156.808C412.746 156.298 413.129 155.919 414.029 155.919H414.413C415.313 155.919 415.697 156.298 415.697 156.808V161.105H419.164C419.681 161.105 419.931 161.484 419.931 162.373V162.883C419.931 163.771 419.681 164.15 419.164 164.15H415.697V176.679C415.697 179.083 416.73 179.724 417.88 179.724C419.031 179.724 419.297 179.476 419.681 179.476C420.197 179.476 420.581 180.991 420.581 181.37C420.581 182.434 418.884 182.623 417.821 182.638H417.63C415.608 182.638 412.465 181.778 412.377 177.291L412.229 164.15ZM425.701 152.889C425.701 152.379 426.217 152 427.368 152H427.501C428.652 152 429.168 152.379 429.168 152.889V163.771C430.585 162.373 432.754 160.989 435.454 160.989C438.14 160.989 441.991 162.009 441.991 167.574V181.632C441.991 182.142 441.474 182.521 440.323 182.521H440.191C439.04 182.521 438.523 182.142 438.523 181.632V167.953C438.523 165.549 437.107 164.034 434.288 164.034C431.205 164.034 429.154 166.816 429.154 166.816V181.632C429.154 182.142 428.637 182.521 427.486 182.521H427.353C426.202 182.521 425.686 182.142 425.686 181.632L425.701 152.889ZM456.864 160.989C462.501 160.989 465.334 164.66 465.334 171.493C465.334 172.003 464.434 173.139 463.917 173.139H450.962C451.346 177.568 453.264 179.593 457.248 179.593C460.833 179.593 462.766 177.947 463.268 177.947C463.784 177.947 464.684 179.462 464.684 179.972C464.684 180.991 461.483 182.507 457.381 182.507C450.578 182.507 447.376 179.083 447.376 171.872C447.244 164.791 450.578 160.989 456.864 160.989ZM461.601 170.225C461.601 166.044 459.933 163.888 456.731 163.888C453.146 163.888 451.346 166.044 450.962 170.225H461.601ZM480.842 154.914C480.842 154.404 481.358 154.025 482.509 154.025H482.893C484.043 154.025 484.56 154.404 484.56 154.914V181.632C484.56 182.142 484.043 182.521 482.893 182.521H482.509C481.358 182.521 480.842 182.142 480.842 181.632V154.914ZM491.864 181.632L491.997 167.326V166.86C491.952 163.888 491.495 162.387 491.495 162.271C491.495 161.513 493.162 161.382 493.679 161.382C494.712 161.382 494.83 163.028 495.095 164.034C496.763 162.14 499.197 160.989 501.514 160.989C505.749 160.989 508.183 163.393 508.183 167.574V181.632C508.183 182.142 507.667 182.521 506.516 182.521H506.383C505.232 182.521 504.716 182.142 504.716 181.632V167.953C504.716 165.549 503.181 164.034 500.481 164.034C498.681 164.034 496.63 165.17 495.346 166.816V181.632C495.346 182.142 494.83 182.521 493.679 182.521H493.546C492.38 182.507 491.864 182.128 491.864 181.632ZM515.59 164.15H513.539C513.023 164.15 512.772 163.771 512.772 162.883V162.373C512.772 161.484 513.023 161.105 513.539 161.105H515.59L516.107 156.808C516.107 156.298 516.623 155.919 517.391 155.919H517.774C518.674 155.919 519.058 156.298 519.058 156.808V161.105H522.525C523.042 161.105 523.293 161.484 523.293 162.373V162.883C523.293 163.771 523.042 164.15 522.525 164.15H519.058V176.679C519.058 179.083 520.091 179.724 521.242 179.724C522.393 179.724 522.658 179.476 523.042 179.476C523.558 179.476 523.942 180.991 523.942 181.37C523.942 182.434 522.245 182.623 521.183 182.638H520.991C518.969 182.638 515.826 181.778 515.738 177.291L515.59 164.15ZM537 160.989C542.637 160.989 545.47 164.66 545.47 171.493C545.47 172.003 544.57 173.139 544.053 173.139H531.098C531.482 177.568 533.4 179.593 537.384 179.593C540.97 179.593 542.903 177.947 543.404 177.947C543.921 177.947 544.821 179.462 544.821 179.972C544.821 180.991 541.619 182.507 537.517 182.507C530.715 182.507 527.513 179.083 527.513 171.872C527.513 164.791 530.729 160.989 537 160.989ZM541.752 170.225C541.752 166.044 540.084 163.888 536.882 163.888C533.297 163.888 531.497 166.044 531.113 170.225H541.752ZM550.988 181.501V167.326V166.86C550.944 163.888 550.487 162.387 550.487 162.271C550.487 161.513 552.154 161.382 552.671 161.382C553.703 161.382 553.822 163.028 554.087 164.034C555.504 162.14 557.171 160.989 558.838 160.989C560.373 160.989 561.273 161.615 561.273 162.504C561.273 163.261 560.889 164.66 560.506 164.66C559.989 164.66 559.606 164.281 558.204 164.281C556.02 164.281 554.486 166.685 554.486 166.685V181.501C554.486 182.011 553.969 182.39 552.818 182.39H552.685C551.49 182.39 550.988 182.011 550.988 181.501ZM565.729 167.326C565.729 164.034 565.213 162.387 565.213 162.256C565.213 161.499 566.88 161.368 567.396 161.368C568.429 161.368 568.547 163.014 568.813 164.019C570.48 162.125 572.915 160.974 575.232 160.974C579.466 160.974 581.901 163.378 581.901 167.559V181.618C581.901 182.128 581.385 182.507 580.234 182.507H580.101C578.95 182.507 578.433 182.128 578.433 181.618V167.938C578.433 165.534 576.899 164.019 574.199 164.019C572.398 164.019 570.348 165.155 569.064 166.802V181.618C569.064 182.128 568.547 182.507 567.396 182.507H567.264C566.113 182.507 565.596 182.128 565.596 181.618L565.729 167.326ZM596.892 160.989C602.529 160.989 605.362 164.66 605.362 171.493C605.362 172.003 604.462 173.139 603.945 173.139H590.99C591.374 177.568 593.292 179.593 597.276 179.593C600.862 179.593 602.795 177.947 603.296 177.947C603.813 177.947 604.713 179.462 604.713 179.972C604.713 180.991 601.511 182.507 597.409 182.507C590.607 182.507 587.405 179.083 587.405 171.872C587.272 164.791 590.607 160.989 596.892 160.989ZM601.629 170.225C601.629 166.044 599.961 163.888 596.76 163.888C593.174 163.888 591.374 166.044 590.99 170.225H601.629ZM611.515 164.15H609.464C608.948 164.15 608.697 163.771 608.697 162.883V162.373C608.697 161.484 608.948 161.105 609.464 161.105H611.515L612.031 156.808C612.031 156.298 612.415 155.919 613.315 155.919H613.699C614.599 155.919 614.982 156.298 614.982 156.808V161.105H618.45C618.966 161.105 619.217 161.484 619.217 162.373V162.883C619.217 163.771 618.966 164.15 618.45 164.15H614.982V176.679C614.982 179.083 616.015 179.724 617.166 179.724C618.317 179.724 618.583 179.476 618.966 179.476C619.483 179.476 619.866 180.991 619.866 181.37C619.866 182.434 618.17 182.623 617.107 182.638H616.915C614.894 182.638 611.751 181.778 611.662 177.291L611.515 164.15Z" fill="#848484"/>
<path d="M266.13 50C276.901 50 286.905 53.8718 286.905 56.8387C286.905 58.6485 284.603 63.1582 283.186 63.1582C282.036 63.1582 276.768 58.3815 266.263 58.3815C247.023 58.3815 240.752 69.5964 240.752 88.6736C240.752 105.437 245.754 119.618 265.112 119.618H265.85C271.235 119.559 276.399 118.951 279.085 118.209V96.1651H266.396C264.861 96.1651 264.212 95.1267 264.212 92.946V91.1362C264.212 88.822 264.846 87.9171 266.396 87.9171H285.503C287.805 87.9171 288.705 88.9555 288.705 91.1362V120.138C288.705 126.324 276.901 128 264.463 128C242.788 128 230.866 115.747 230.866 89.7121C230.881 62.372 243.437 50 266.13 50ZM299.992 125.167V86.7452C299.992 77.8296 298.738 73.5721 298.708 72.9787V72.9639C298.708 70.9019 303.194 70.3827 304.61 70.3827C307.178 70.3827 307.812 74.7588 308.461 77.6071C312.179 72.326 316.547 69.3591 321.032 69.3591C325.267 69.3591 327.318 71.1689 327.318 73.6166C327.318 75.6786 326.418 79.5504 325.134 79.5504C323.718 79.5504 322.832 78.3933 319.114 78.3933C313.478 78.3933 309.11 85.0985 309.11 85.0985V125.196C309.11 126.739 307.827 127.644 304.758 127.644H304.374C301.276 127.614 299.992 126.709 299.992 125.167ZM357.048 69.3442C371.921 69.3442 379.49 79.2685 379.49 97.8414C379.49 99.132 377.188 102.351 375.905 102.351H341.541C342.441 114.471 347.561 120.019 358.332 120.019C367.819 120.019 373.072 115.376 374.237 115.376C375.772 115.376 378.088 119.633 378.088 120.79C378.088 123.372 369.501 127.748 358.465 127.748C340.567 127.748 331.965 118.654 331.803 99.4583V98.8798C331.656 79.6542 340.376 69.3442 357.048 69.3442ZM369.752 94.6074C369.752 83.1403 365.385 77.3252 356.679 77.3252C347.192 77.3252 342.19 83.1255 341.423 94.6074H369.752ZM413.47 69.3442C428.343 69.3442 435.912 79.2685 435.912 97.8414C435.912 99.132 433.61 102.351 432.327 102.351H397.963C398.863 114.471 403.983 120.019 414.769 120.019C424.256 120.019 429.508 115.376 430.674 115.376C432.209 115.376 434.525 119.633 434.525 120.79C434.525 123.372 425.938 127.748 414.901 127.748C396.827 127.748 388.225 118.461 388.225 98.865C388.21 79.6542 396.797 69.3442 413.47 69.3442ZM426.292 94.6074C426.292 83.1403 421.939 77.3252 413.219 77.3252C403.732 77.3252 398.73 83.1255 397.963 94.6074H426.292ZM445.783 124.9V86.7452V86.0628C445.724 77.6219 444.529 73.5573 444.499 72.9787V72.9639C444.499 70.9019 448.985 70.3827 450.401 70.3827C452.968 70.3827 453.603 74.7588 454.252 77.6071C458.87 72.4447 465.156 69.3591 471.176 69.3591C482.33 69.3591 488.866 76.0643 488.866 87.027V124.929C488.866 126.472 487.583 127.377 484.499 127.377H484.115C481.032 127.377 479.748 126.472 479.748 124.929V87.7984C479.748 81.0932 475.779 77.2214 468.594 77.2214C463.725 77.2214 458.457 80.1883 454.872 84.8315V124.929C454.872 126.472 453.588 127.377 450.504 127.377H450.121C447.066 127.347 445.783 126.457 445.783 124.9Z" fill="#262626"/>
<path d="M508.52 108.736C510.433 108.736 515.806 113.748 524.505 113.748H524.814C529.363 113.689 534.736 112.181 534.736 105.779C534.736 92.9312 503.397 97.9432 503.397 72.2478C503.397 56.1918 516.439 49.8937 529.113 49.8937C540.623 49.8937 548.69 53.8707 548.69 57.4781C548.69 60.435 545.363 66.9845 542.684 66.9845C541.271 66.9845 537.944 64.2937 530.658 64.2937C522.209 64.2937 520.546 68.2707 520.546 70.725C520.546 83.1883 551.884 78.1763 551.884 103.753C551.884 121.864 539.225 127.911 527.317 127.911C510.816 127.911 501.866 121.998 501.866 118.272C501.866 115.034 506.223 108.736 508.52 108.736ZM584.635 69.2909C601.902 69.2909 610.866 79.6991 610.866 98.5789C610.866 117.592 601.916 128 584.635 128C567.354 128 558.287 117.592 558.287 98.5789C558.287 79.5661 567.369 69.2909 584.635 69.2909ZM594.615 98.9042V98.5789C594.615 87.6532 591.539 82.0055 584.635 82.0055C577.732 82.0055 574.523 87.6532 574.523 98.5789C574.523 109.505 577.717 115.285 584.635 115.285C591.48 115.285 594.557 109.623 594.615 98.9042ZM645.781 69.2909H646.237C653.862 69.3944 663.813 71.9521 663.813 76.8753C663.813 78.9303 659.853 85.2285 658.057 85.2285C657.675 85.2285 657.027 84.8441 656.144 84.4597L655.717 84.238C653.803 83.2474 650.948 82.0203 646.679 82.0203C638.068 82.0203 634.476 87.3131 634.403 98.2684V98.6085C634.403 109.786 637.729 115.315 646.046 115.315C651.169 115.315 654.613 113.777 656.659 112.742L656.998 112.595C657.719 112.299 658.234 112.092 658.573 112.092C661.001 112.092 664.195 118.257 664.195 120.312C664.195 126.477 648.71 127.896 645.266 127.896C626.719 127.896 617.887 118.39 617.887 98.8598C617.902 79.5661 626.336 69.2909 645.781 69.2909ZM672.012 48.4743C672.012 46.1975 673.866 45.0444 678.297 45H681.609C686.216 45 688.13 46.1532 688.13 48.4743V91.645L688.512 91.7781L701.687 71.9964C702.938 70.2519 705.028 69.9562 708.09 69.9414H712.3C716.392 69.9414 718.438 70.5771 718.438 71.612C718.438 72.0999 718.099 72.8096 717.525 73.6375L702.32 95.3855L719.968 123.52L720.41 124.378C720.69 124.94 720.866 125.383 720.866 125.827C720.866 126.862 718.953 127.497 714.728 127.497H710.121H709.635C706.691 127.453 704.572 127.024 703.6 125.442L688.512 100.383L688.13 100.516V124.023C688.13 126.329 686.216 127.497 681.609 127.497H678.532C673.925 127.497 672.012 126.344 672.012 124.023V48.4743Z" fill="#88CE02"/>
</svg>
